<svg xmlns="http://www.w3.org/2000/svg" viewBox="0 0 868 514.8" width="868" height="514.8" font-family="-apple-system, 'Segoe UI', 'Helvetica Neue', Arial, sans-serif">
<defs>
<marker id="arw-e9ebed" viewBox="0 0 10 10" refX="9" refY="5" markerWidth="6.5" markerHeight="6.5" orient="auto-start-reverse"><path d="M 0 0 L 10 5 L 0 10 z" fill="#e9ebed"/></marker>
<marker id="arw-f0ac45" viewBox="0 0 10 10" refX="9" refY="5" markerWidth="6.5" markerHeight="6.5" orient="auto-start-reverse"><path d="M 0 0 L 10 5 L 0 10 z" fill="#f0ac45"/></marker>
<marker id="arw-73c26a" viewBox="0 0 10 10" refX="9" refY="5" markerWidth="6.5" markerHeight="6.5" orient="auto-start-reverse"><path d="M 0 0 L 10 5 L 0 10 z" fill="#73c26a"/></marker>
<marker id="arw-69aeef" viewBox="0 0 10 10" refX="9" refY="5" markerWidth="6.5" markerHeight="6.5" orient="auto-start-reverse"><path d="M 0 0 L 10 5 L 0 10 z" fill="#69aeef"/></marker>
<linearGradient id="gf-bg" x1="0" y1="0" x2="0.35" y2="1"><stop offset="0" stop-color="#112c40"/><stop offset="1" stop-color="#204242"/></linearGradient>
</defs>
<rect x="0" y="0" width="868" height="514.8" fill="url(#gf-bg)"/>
<text x="30" y="56" font-size="30" font-weight="700" fill="#ffffff">Variants and instances</text>
<text x="668" y="44" font-size="14" font-weight="700" fill="#ffffff">Domains</text>
<rect x="668" y="56" width="18" height="10" fill="#5dbfcd"/>
<text x="694" y="65" font-size="11" fill="#ffffff">Design and Planning</text>
<rect x="668" y="72" width="18" height="10" fill="#f0ac45"/>
<text x="694" y="81" font-size="11" fill="#ffffff">Service Delivery</text>
<rect x="668" y="88" width="18" height="10" fill="#73c26a"/>
<text x="694" y="97" font-size="11" fill="#ffffff">Service Consumption</text>
<rect x="428" y="30" width="220" height="55" fill="none" stroke="#ffffff" stroke-width="1"/>
<path d="M 442 39.42857142857143 L 442 69.28571428571428" stroke="#e9ebed" stroke-width="2" marker-end="url(#arw-e9ebed)"/>
<text x="452" y="50" font-size="10" fill="#ffffff">Relationship</text>
<path d="M 552 39.42857142857143 L 552 69.28571428571428" stroke="#69aeef" stroke-width="2" marker-end="url(#arw-69aeef)"/>
<text x="562" y="50" font-size="10" fill="#ffffff">Service Mapping</text>
<rect x="296" y="289.6" width="112" height="69.6" rx="6" fill="#ca903a" stroke="#f6c983" stroke-width="2"/>
<text x="402" y="355.2" text-anchor="end" font-size="9.3" font-weight="600" fill="#0b0b0b">QA</text>
<rect x="276" y="276.6" width="112" height="69.6" rx="6" fill="#dd9e3f" stroke="#f6c983" stroke-width="2"/>
<text x="382" y="342.2" text-anchor="end" font-size="9.3" font-weight="600" fill="#0b0b0b">Dev</text>
<path d="M 312 181.6 L 312 263.6" fill="none" stroke="#e9ebed" stroke-width="2" marker-end="url(#arw-e9ebed)"/>
<path d="M 142 298.4 L 256 298.4" fill="none" stroke="#f0ac45" stroke-width="2" marker-end="url(#arw-f0ac45)"/>
<path d="M 482 298.4 L 368 298.4" fill="none" stroke="#73c26a" stroke-width="2" marker-end="url(#arw-73c26a)"/>
<path d="M 312 333.2 L 312 415.2" fill="none" stroke="#69aeef" stroke-width="2"/>
<rect x="256" y="112" width="112" height="69.6" rx="6" fill="#5dbfcd" stroke="#8fd6e0" stroke-width="2"/>
<text x="312" y="131.7" text-anchor="middle" font-size="11" font-weight="700" fill="#0b0b0b">Business</text>
<text x="312" y="145.1" text-anchor="middle" font-size="11" font-weight="700" fill="#0b0b0b">Application</text>
<text x="312" y="158.5" text-anchor="middle" font-size="11" font-weight="400" fill="#0b0b0b">Enterprise</text>
<text x="312" y="171.9" text-anchor="middle" font-size="11" font-weight="400" fill="#0b0b0b">Architecture</text>
<rect x="30" y="263.6" width="112" height="69.6" rx="6" fill="#b88c44" stroke="#d2ad72" stroke-width="2"/>
<text x="86" y="283.3" text-anchor="middle" font-size="11" font-weight="700" fill="#0b0b0b">Tech Mgmt</text>
<text x="86" y="296.7" text-anchor="middle" font-size="11" font-weight="700" fill="#0b0b0b">Service Offering</text>
<text x="86" y="310.1" text-anchor="middle" font-size="11" font-weight="400" fill="#0b0b0b">ServiceNow</text>
<text x="86" y="323.5" text-anchor="middle" font-size="11" font-weight="400" fill="#0b0b0b">Administration</text>
<rect x="256" y="263.6" width="112" height="69.6" rx="6" fill="#f0ac45" stroke="#f6c983" stroke-width="2"/>
<text x="312" y="296.7" text-anchor="middle" font-size="11" font-weight="700" fill="#0b0b0b">Service Instance</text>
<text x="312" y="310.1" text-anchor="middle" font-size="11" font-weight="400" fill="#0b0b0b">*EA Prod</text>
<rect x="482" y="263.6" width="112" height="69.6" rx="6" fill="#73c26a" stroke="#a3d99c" stroke-width="2"/>
<text x="538" y="283.3" text-anchor="middle" font-size="11" font-weight="700" fill="#0b0b0b">Bus Service</text>
<text x="538" y="296.7" text-anchor="middle" font-size="11" font-weight="700" fill="#0b0b0b">Offering</text>
<text x="538" y="310.1" text-anchor="middle" font-size="11" font-weight="400" fill="#0b0b0b">SN Application</text>
<text x="538" y="323.5" text-anchor="middle" font-size="11" font-weight="400" fill="#0b0b0b">Portfolio Mgmt</text>
<rect x="266" y="425.2" width="112" height="69.6" rx="6" fill="#f0ac45" stroke="#f6c983" stroke-width="2"/>
<rect x="261" y="420.2" width="112" height="69.6" rx="6" fill="#f0ac45" stroke="#f6c983" stroke-width="2"/>
<rect x="256" y="415.2" width="112" height="69.6" rx="6" fill="#f0ac45" stroke="#f6c983" stroke-width="2"/>
<text x="312" y="448.3" text-anchor="middle" font-size="11" font-weight="700" fill="#0b0b0b">Windows Server</text>
<text x="312" y="461.7" text-anchor="middle" font-size="11" font-weight="400" fill="#0b0b0b">web01, web02</text>
<text x="317" y="225.4" text-anchor="start" font-size="9.4" font-weight="600" fill="#ffffff" stroke="#112c40" stroke-width="3" stroke-linejoin="round" paint-order="stroke">Consumes</text>
<text x="199" y="294.4" text-anchor="middle" font-size="9.4" font-weight="600" fill="#ffffff" stroke="#112c40" stroke-width="3" stroke-linejoin="round" paint-order="stroke">Contains</text>
<text x="447.8" y="294.4" text-anchor="middle" font-size="9.4" font-weight="600" fill="#ffffff" stroke="#112c40" stroke-width="3" stroke-linejoin="round" paint-order="stroke">Depends On</text>
</svg>
